# xmcd CD database file
#
# Track frame offsets:
#	180
#	13049
#	25035
#	36198
#	49851
#	61721
#	74853
#	86039
#	100985
#	112168
#	125506
#	141673
#	153336
#	173705
#	198145
#	211583
#
# Disc length: 3020 seconds
#
# Revision: 0
# Processed by: cddbd v1.5.2PL0 Copyright (c) Steve Scherf et al.
# Submitted via: CDex 1.51
#
DISCID=e20bca10
DTITLE=Various Artist - Legends Of Blues - CD5
DYEAR=2005
DGENRE=Blues
TTITLE0=Muddy Waters - Louisiana Blues
TTITLE1=Jimmy Witherspoon - Love My Baby
TTITLE2=Big Joe Turner - Lucille
TTITLE3=Sonny Terry and Brownie McGhee - Man Ain't Nothin' But A Fool
TTITLE4=Ray Charles - Mess Around
TTITLE5=Muddy Waters - She Moves Me
TTITLE6=BB King - She's Dynamite
TTITLE7=Muddy Waters - Standing Around Crying
TTITLE8=Big Joe Turner - Story To Tell
TTITLE9=Ray Charles - The Midnight Hour
TTITLE10=BB King - The Other Night Blues
TTITLE11=Ray Charles - The Sun's Gonna Shine Again
TTITLE12=Ben Webster - Bounce Blues
TTITLE13=Joe Williams and Count Basie - Every Day I Have The Blues
TTITLE14=Joe Williams and Count Basie - Kansas City Blues
TTITLE15=Ben Webster - Love's Away
EXTD=YEAR: 2005
EXTT0=
EXTT1=
EXTT2=
EXTT3=
EXTT4=
EXTT5=
EXTT6=
EXTT7=
EXTT8=
EXTT9=
EXTT10=
EXTT11=
EXTT12=
EXTT13=
EXTT14=
EXTT15=
PLAYORDER=
